<svg width="89" height="77" viewBox="0 0 89 77" fill="none" xmlns="http://www.w3.org/2000/svg">
<path d="M86.9745 24.6792C87.5831 26.4325 87.9985 28.2447 88.2105 30.0708C88.4198 31.8615 88.4379 33.6516 88.2644 35.4009C88.1653 36.3735 88.0038 37.3291 87.7813 38.2603C87.7758 38.3059 87.7694 38.3326 87.77 38.3484L87.7674 38.3551C87.5938 39.08 87.3862 39.79 87.1452 40.4821C86.8027 41.4616 86.3908 42.4008 85.9133 43.2913C85.9133 43.2913 82.3555 49.3453 76.2991 51.4437L75.307 51.7934L71.0676 53.2992L66.2475 39.3875L71.9123 37.4247C72.6608 37.1735 73.3383 36.7398 73.9017 36.1516C74.459 35.5771 74.9035 34.8737 75.211 34.0793C75.5153 33.2797 75.6731 32.4029 75.6758 31.498C75.6893 30.5767 75.5327 29.6416 75.2159 28.7533C75.0618 28.3006 74.8695 27.8621 74.642 27.4446C74.6377 27.4404 74.6343 27.4352 74.6318 27.4296C74.4136 27.0276 74.16 26.6494 73.8755 26.3019C72.7389 24.8762 71.2037 23.9601 69.5993 23.7505C68.7945 23.6359 67.9956 23.7141 67.254 23.9801L61.5892 25.9429C60.3062 22.2426 57.8381 19.123 54.7274 17.2699C51.6167 15.4168 48.1181 14.9818 45.0007 16.0606L62.4191 10.0255C63.9801 9.4795 65.6225 9.19012 67.3003 9.16544C68.9181 9.14329 70.5541 9.36285 72.1673 9.81867C72.7474 9.98363 73.3226 10.1814 73.8923 10.4063L73.9383 10.4207C76.4917 11.4336 78.8893 13.022 80.9797 15.0855C82.2772 16.3664 83.4421 17.8168 84.4455 19.4008C85.4837 21.0451 86.3346 22.8211 86.9745 24.6792Z" fill="url(#paint0_linear_1_92)"/>
<path d="M61.5892 25.9428L74.2368 62.446L62.4832 66.5183L45.0007 16.0605C48.1181 14.9818 51.6167 15.4167 54.7274 17.2698C57.8381 19.1229 60.3062 22.2425 61.5892 25.9428Z" fill="url(#paint1_linear_1_92)"/>
<g style="mix-blend-mode:multiply" opacity="0.16">
<path d="M61.5892 25.9428C60.3062 22.2425 57.8381 19.1229 54.7274 17.2698C51.6167 15.4167 48.1181 14.9818 45.0007 16.0605L55.6439 12.3729C58.9326 14.1871 62.7117 17.7175 65.7002 24.5184L61.5892 25.9428Z" fill="black"/>
</g>
<g style="mix-blend-mode:multiply" opacity="0.16">
<path d="M70.4985 37.9145L75.3064 51.791L71.067 53.2969L66.2476 39.3874L70.4985 37.9145Z" fill="black"/>
</g>
<g style="mix-blend-mode:multiply" opacity="0.25">
<path d="M86.9746 24.6791C87.5832 26.4324 87.9987 28.2446 88.2106 30.0707C88.4199 31.8614 88.438 33.6515 88.2646 35.4007C88.1655 36.3733 88.004 37.329 87.7814 38.2602C87.8099 38.0703 87.8806 37.6117 87.9504 36.9238C88.0792 35.6697 88.1218 34.3957 88.0779 33.1133C88.0156 31.3186 87.7753 29.516 87.3613 27.7402C87.1222 26.748 86.8311 25.7672 86.4897 24.8034C86.1357 23.8082 85.7221 22.8359 85.2521 21.894C84.7887 20.9497 84.2669 20.0394 83.6914 19.1707C83.1341 18.3281 82.5351 17.5205 81.8977 16.7527C81.2951 16.0357 80.661 15.354 79.9984 14.7111C79.3635 14.1058 78.7327 13.5614 78.1357 13.0919C77.1653 12.33 76.1522 11.6501 75.1055 11.0585C74.3431 10.6211 73.8922 10.4055 73.8922 10.4055L73.9382 10.4198C76.4917 11.4328 78.8892 13.0211 80.9796 15.0846C82.2772 16.3656 83.442 17.8159 84.4454 19.3999C85.4838 21.0445 86.3347 22.8207 86.9746 24.6791Z" fill="black"/>
</g>
<g style="mix-blend-mode:screen" opacity="0.7">
<path d="M54.2331 41.1239C54.7751 42.7027 55.3166 44.2818 55.8443 45.8336C56.3721 47.3855 56.8828 48.923 57.3816 50.4075C58.3741 53.3765 59.2781 56.1532 60.0324 58.541C61.5555 63.3132 62.484 66.5206 62.484 66.5206L45.0007 16.0605C45.0007 16.0605 46.2569 19.1586 48.0115 23.8464C48.8945 26.1904 49.9039 28.9298 50.9612 31.8772C51.4876 33.3513 52.0459 34.8706 52.5833 36.4217C53.1207 37.9727 53.6803 39.5471 54.2331 41.1239Z" fill="white"/>
</g>
<g style="mix-blend-mode:multiply" opacity="0.25">
<path d="M75.8068 29.765C75.9327 30.1852 76.0187 30.6153 76.0634 31.0473C76.085 31.2754 76.0999 31.531 76.1081 31.7511C76.115 31.9996 76.1083 32.2466 76.088 32.4908C76.0502 33.0073 75.9578 33.5101 75.8126 33.9886C75.6615 34.481 75.4619 34.9474 75.2174 35.3793C74.9612 35.8029 74.6648 36.1906 74.3329 36.5363C74.0106 36.8679 73.6499 37.149 73.2589 37.3737C72.8961 37.583 72.5084 37.7402 72.1039 37.842C71.7421 37.943 71.4021 38.017 71.0804 38.0847C69.8147 38.3685 68.9352 38.4561 68.9352 38.4561L71.9125 37.4246C72.661 37.1733 73.3385 36.7398 73.9019 36.1514C74.4592 35.5769 74.9037 34.8736 75.2112 34.0792C75.5155 33.2796 75.6733 32.4028 75.676 31.4979C75.6895 30.5765 75.5329 29.6415 75.2161 28.7532C75.062 28.3005 74.8698 27.8621 74.6422 27.4445C74.7869 27.6208 74.919 27.8098 75.037 28.0093C75.3641 28.5569 75.6236 29.1485 75.8068 29.765Z" fill="black"/>
</g>
<g style="mix-blend-mode:screen" opacity="0.7">
<path d="M61.5894 25.9427L74.237 62.4459C74.237 62.4459 73.8787 61.547 73.2789 59.9672C72.6791 58.3873 71.807 56.1279 70.8083 53.4092C69.7967 50.6941 68.6404 47.5143 67.4216 44.103C66.8146 42.396 66.1884 40.6335 65.5507 38.838C64.9129 37.0424 64.286 35.2187 63.65 33.3974C63.014 31.576 62.392 29.738 61.7798 27.9403C61.4662 27.0496 61.1742 26.1311 60.8599 25.2995C60.5374 24.4753 60.1499 23.68 59.7024 22.9244C58.8515 21.4821 57.8036 20.1931 56.6051 19.114C54.5891 17.3092 52.2236 16.1486 49.7863 15.7686C48.9205 15.6324 48.0541 15.5998 47.2016 15.6714C46.6498 15.7175 46.1038 15.7988 45.5663 15.915C45.1973 16.0117 45.0005 16.0614 45.0005 16.0614C48.1179 14.9826 51.6165 15.4176 54.7272 17.2707C57.8379 19.1238 60.306 22.2434 61.589 25.9437L61.5894 25.9427Z" fill="white"/>
</g>
<mask id="mask0_1_92" style="mask-type:luminance" maskUnits="userSpaceOnUse" x="1" y="10" width="56" height="59">
<path d="M1.05658 10.3988L1.2561 68.388L56.0759 67.9896L55.8764 10.0003L1.05658 10.3988Z" fill="white"/>
</mask>
<g mask="url(#mask0_1_92)">
<path d="M55.9773 39.0233L55.9535 32.0122L45.011 32.091C44.9882 32.4182 44.9569 32.761 44.9186 33.0916C44.8718 33.643 44.8017 34.1946 44.7155 34.7382C44.6764 35.0434 44.6294 35.3406 44.574 35.6386C44.5344 35.8343 44.5034 36.0291 44.4638 36.2248C44.4009 36.5899 44.3218 36.9552 44.2357 37.3196C43.976 38.4963 43.6534 39.6566 43.2695 40.795C43.1272 41.2195 42.9763 41.6444 42.817 42.0697C42.7136 42.3419 42.6024 42.6141 42.4912 42.8896C42.0385 44.0041 41.5284 45.0917 40.9631 46.1475L41.0915 46.1466C40.5946 47.1409 39.9928 48.0726 39.2974 48.9239C39.2974 48.9321 39.2889 48.9411 39.2812 48.9494C38.779 49.7076 38.2442 50.4408 37.6854 51.157C37.1342 51.856 36.5598 52.5306 35.9529 53.1792C35.6494 53.5085 35.3367 53.8378 35.0176 54.1434C35.009 54.1615 34.9953 54.1765 34.9784 54.1862C34.6702 54.4942 34.3705 54.7842 34.0537 55.0661C33.3979 55.6816 32.7265 56.2547 32.0233 56.7978C31.6556 57.089 31.2792 57.3632 30.8952 57.6366C30.5998 57.8513 30.3114 58.0496 30.0075 58.2456C29.9998 58.2538 29.992 58.2539 29.9836 58.2621C29.6956 58.4598 29.3997 58.6487 29.0957 58.8286C28.3196 59.3002 27.5195 59.7467 26.7037 60.154C26.3595 60.3258 26.0153 60.4983 25.6625 60.6521C24.9586 60.9711 24.2461 61.2649 23.5257 61.5244C23.2693 61.6194 23.013 61.7055 22.7535 61.7924C22.2416 61.9661 21.7211 62.1269 21.1998 62.2696C21.0159 62.3225 20.8236 62.3745 20.6398 62.4184C20.2953 62.5141 19.9585 62.5925 19.614 62.6711C19.2378 62.7506 18.8608 62.8294 18.4846 62.8918C18.0681 62.9708 17.6432 63.0417 17.2267 63.0954C16.8744 63.1487 16.5312 63.1822 16.185 63.2215C16.0405 63.2397 15.9045 63.2497 15.76 63.2589C15.6833 63.2723 15.6058 63.2813 15.5282 63.2859C15.3357 63.3045 15.1417 63.314 14.9508 63.3244C14.4299 63.3619 13.901 63.3826 13.3639 63.3865C16.4651 65.5701 19.9579 67.0582 23.6274 67.7593C27.297 68.4604 31.0657 68.3597 34.7019 67.4633C34.7173 67.455 34.7413 67.4549 34.7575 67.4466C39.6899 66.2116 44.2079 63.5599 47.8125 59.7841C51.417 56.0084 53.9679 51.2556 55.1833 46.0508C55.7227 43.7513 55.9894 41.3906 55.9773 39.0233Z" fill="url(#paint2_linear_1_92)"/>
<path d="M44.998 32.0741L31.5491 32.1709C30.6727 32.1671 29.8036 32.3473 28.9923 32.7009C28.181 33.0545 27.4436 33.5745 26.8227 34.2308C26.2018 34.8871 25.7098 35.6667 25.375 36.5244C25.0403 37.3822 24.8696 38.3011 24.8728 39.2279C24.8759 40.1547 25.0529 41.0711 25.3934 41.924C25.7339 42.7769 26.2312 43.5494 26.8566 44.1967C27.4819 44.844 28.2228 45.3533 29.0365 45.6952C29.8501 46.0372 30.7204 46.2047 31.5968 46.1885L40.9492 46.1211C43.2598 41.8079 44.6423 37.0113 44.998 32.0741Z" fill="url(#paint3_linear_1_92)"/>
<path d="M39.2898 48.9101C37.9697 50.5413 36.334 51.8539 34.4938 52.7586C32.6536 53.6633 30.6521 54.1389 28.6255 54.1531C27.686 54.1593 26.7485 54.0696 25.8259 53.8852C24.9103 53.693 24.0151 53.4069 23.1526 53.0307C20.6096 51.916 18.4299 50.0426 16.8787 47.6383C16.871 47.6383 16.871 47.6382 16.871 47.6292C16.5247 47.2415 16.1862 46.8374 15.8615 46.4234C15.8608 46.4169 15.8577 46.4111 15.853 46.407C12.7996 42.5508 10.685 37.9611 9.69335 33.0367C8.70163 28.1122 8.86271 23.0023 10.1626 18.1509C10.1938 17.987 10.2388 17.823 10.2893 17.659C5.06608 22.6193 1.83349 29.5034 1.25737 36.8936C0.681245 44.2838 2.80547 51.6172 7.1925 57.3833C8.95208 59.6926 11.0328 61.7056 13.3639 63.3542C20.0801 63.2928 26.6127 60.986 32.027 56.7635C34.8291 54.5732 37.2813 51.9215 39.2898 48.9101Z" fill="url(#paint4_linear_1_92)"/>
<path d="M55.1614 10.0072L42.7645 10.0964L42.7639 10.0997L42.762 10.1025L42.7592 10.1042L42.7561 10.1046L42.7561 10.1136C42.6208 10.3342 42.4933 10.5557 42.3495 10.7699C42.0422 11.2891 41.7123 11.7912 41.3771 12.2845C40.5329 13.5214 39.6135 14.6991 38.6248 15.8101C38.4408 16.023 38.2491 16.2368 38.0574 16.4497C38.0258 16.4834 37.9858 16.5179 37.9534 16.5516C37.6747 16.859 37.3952 17.1486 37.1063 17.43C36.8029 17.7376 36.4902 18.0362 36.1821 18.3349C35.9186 18.5736 35.6474 18.8214 35.3754 19.0601C35.1997 19.2141 35.0156 19.3674 34.8322 19.5214C34.6881 19.6498 34.5362 19.7686 34.3921 19.8889C34.1686 20.0685 33.9451 20.2481 33.7208 20.4187C33.6438 20.4789 33.5667 20.5383 33.4973 20.5894C33.2098 20.812 32.9138 21.0347 32.61 21.2394C32.5747 21.2697 32.5374 21.2972 32.4983 21.3218C32.1706 21.5528 31.8421 21.7757 31.5067 21.9897C31.2107 22.1952 30.9153 22.3834 30.6106 22.5546C30.4989 22.6322 30.3793 22.7009 30.259 22.7695C29.9713 22.9488 29.6837 23.1207 29.3951 23.2657C29.3635 23.2831 29.3396 23.3004 29.3072 23.317C28.9717 23.5146 28.6277 23.6951 28.2836 23.8666C28.2673 23.8667 28.2597 23.8749 28.2435 23.884C28.0121 24.0123 27.7806 24.1243 27.5491 24.2362C27.8582 24.2087 28.1742 24.1982 28.4864 24.196L41.9559 24.0991C42.8577 24.0919 43.7568 23.9888 44.6396 23.7914C47.623 23.1198 50.299 21.3816 52.2159 18.8704C54.1328 16.3591 55.1732 13.2285 55.1614 10.0072Z" fill="url(#paint5_linear_1_92)"/>
<path d="M42.7944 10.0782L28.4569 10.1814C22.0741 10.2288 15.9006 12.6346 11.0042 16.9827C10.7567 17.1963 10.5085 17.419 10.2688 17.6498C10.2269 17.7841 10.1925 17.9209 10.1658 18.0595C10.1509 18.0788 10.1426 18.1027 10.142 18.1276L10.1421 18.1439C10.055 18.4586 9.97569 18.7815 9.89637 19.1043C9.88881 19.1551 9.87277 19.2149 9.85751 19.2747C9.78586 19.5804 9.72275 19.895 9.65964 20.2087C9.56528 20.6593 9.48639 21.1098 9.41604 21.5683C9.37666 21.814 9.34579 22.0596 9.30642 22.3053C9.26722 22.6025 9.23655 22.9079 9.20511 23.2132C9.17359 23.494 9.15057 23.7738 9.13064 24.0537C9.1234 24.1977 9.10765 24.3426 9.10044 24.4948C9.05498 25.2248 9.03274 25.9629 9.03526 26.7039C9.03589 26.8913 9.03653 27.0778 9.04564 27.2552C9.04619 27.4188 9.05444 27.5692 9.06349 27.7303C9.05814 27.8182 9.061 27.9064 9.07212 27.9936C9.07252 28.1122 9.08066 28.2308 9.08956 28.3493C9.09836 28.6634 9.1234 28.9765 9.14844 29.2904C9.15738 29.418 9.16554 29.5447 9.18221 29.6722C9.21527 30.0703 9.2568 30.4602 9.31461 30.8589C9.34714 31.1041 9.38049 31.3582 9.42076 31.6042C9.42122 31.6506 9.42981 31.6966 9.44596 31.7398C9.47057 31.9261 9.50293 32.1213 9.53606 32.3116C9.65836 33.0314 9.81314 33.7518 9.99183 34.454C10.0413 34.6663 10.0977 34.8778 10.1548 35.081C10.4631 36.2218 10.8309 37.3434 11.2565 38.4407C11.3782 38.7531 11.5076 39.0581 11.6463 39.3622C11.9293 40.0391 12.2439 40.6985 12.581 41.3489C12.7102 41.6195 12.855 41.8811 13.0004 42.1435C13.4121 42.8955 13.8561 43.63 14.331 44.3424C14.5727 44.6973 14.8144 45.0514 15.0645 45.4005C15.3061 45.7301 15.5555 46.0587 15.8055 46.3767C15.8183 46.3857 15.829 46.3974 15.8374 46.4109C15.9019 46.5037 15.9748 46.5874 16.0471 46.6802C16.3049 47.0055 16.5782 47.3217 16.8522 47.633C15.2622 45.1764 14.4085 42.2685 14.402 39.2867L14.4019 39.2785C14.3953 37.3151 14.7548 35.3682 15.4599 33.5495C16.1651 31.7308 17.202 30.076 18.5114 28.6798C20.927 26.0954 24.1443 24.523 27.566 24.2548C27.7976 24.1427 28.0292 24.0306 28.2607 23.9021C28.2769 23.893 28.2846 23.8848 28.3009 23.8847C28.6451 23.7039 28.9894 23.5239 29.3251 23.3342C29.3575 23.3176 29.3815 23.3002 29.4131 23.2828C29.7018 23.1286 29.9896 22.9564 30.2775 22.7858C30.3979 22.717 30.5175 22.6483 30.6293 22.5706C30.938 22.3909 31.2297 22.2023 31.526 22.0046C31.8616 21.7904 32.1903 21.5671 32.5181 21.3357C32.5572 21.3111 32.5946 21.2835 32.6299 21.2531C32.9262 21.0481 33.2216 20.8333 33.5178 20.6021C33.5895 20.5509 33.662 20.4915 33.7414 20.4312C33.9659 20.2603 34.1895 20.0804 34.4131 19.9004C34.5573 19.7808 34.7093 19.6611 34.8534 19.5324C35.037 19.3872 35.2213 19.2329 35.397 19.0705C35.6692 18.8313 35.9366 18.5831 36.2041 18.3439C36.5124 18.0448 36.8277 17.7457 37.129 17.4376C37.4172 17.1557 37.6969 16.8658 37.9766 16.5578C38.009 16.5241 38.049 16.4894 38.0806 16.4556C38.2725 16.2423 38.4658 16.0284 38.6484 15.8152C39.6377 14.7023 40.5576 13.5226 41.4023 12.2838C41.7455 11.7905 42.0725 11.2866 42.3839 10.7666C42.5192 10.5538 42.6546 10.332 42.7822 10.1094L42.7821 10.1004C42.7849 10.1021 42.7882 10.1026 42.7913 10.1018C42.7944 10.1009 42.7971 10.0988 42.7988 10.0958C42.8004 10.0929 42.8008 10.0893 42.8 10.0861C42.7992 10.0827 42.7972 10.08 42.7944 10.0782Z" fill="url(#paint6_linear_1_92)"/>
<g style="mix-blend-mode:multiply" opacity="0.1">
<path d="M28.6354 54.1805C27.6964 54.1875 26.7595 54.0991 25.8375 53.9164C21.0032 56.0086 14.9077 57.3763 7.2137 57.4126C8.97134 59.7107 11.0501 61.7134 13.3792 63.3529C20.0914 63.2856 26.621 60.9821 32.0338 56.7721C34.8348 54.5897 37.2866 51.9483 39.2955 48.9492C37.9755 50.5749 36.3402 51.8836 34.5008 52.7863C32.6613 53.689 30.6608 54.1644 28.6354 54.1805Z" fill="black"/>
</g>
<g style="mix-blend-mode:multiply" opacity="0.16">
<path d="M45.0037 32.0742L43.7835 32.0841C42.6391 37.3642 40.1746 42.2291 36.6478 46.1704L40.9432 46.1355C43.2591 41.8168 44.6456 37.0153 45.0037 32.0742Z" fill="black"/>
</g>
<g style="mix-blend-mode:multiply" opacity="0.1">
<path d="M18.2336 12.3404C15.6162 13.4755 13.181 15.0334 11.0159 16.9577C10.7672 17.1717 10.5179 17.3949 10.277 17.626C10.2349 17.7604 10.2003 17.8974 10.1734 18.0362C10.1585 18.0554 10.1501 18.0794 10.1496 18.1043L10.1496 18.1206C10.062 18.4356 9.98224 18.7588 9.90245 19.082C9.89484 19.1328 9.87871 19.1927 9.86336 19.2526C9.79128 19.5585 9.72778 19.8734 9.66427 20.1875C9.56933 20.6385 9.48993 21.0893 9.41909 21.5483C9.37945 21.7942 9.34835 22.0401 9.30871 22.286C9.26922 22.5834 9.2383 22.889 9.20661 23.1946C9.17484 23.4757 9.15161 23.7557 9.13148 24.0358C9.12415 24.18 9.10828 24.325 9.10097 24.4773C9.05503 25.2079 9.03241 25.9465 9.03464 26.6882C9.03521 26.8756 9.03577 27.0623 9.04485 27.2398C9.04534 27.4035 9.05356 27.5541 9.06259 27.7153C9.05719 27.8032 9.06009 27.8915 9.07115 27.9788C9.07151 28.0975 9.07963 28.2161 9.08853 28.3347C9.09724 28.649 9.12226 28.9623 9.14728 29.2765C9.15621 29.4041 9.16436 29.5309 9.18105 29.6585C9.21409 30.0569 9.25565 30.447 9.31355 30.846C9.34613 31.0913 9.37951 31.3456 9.41986 31.5917C9.42039 31.6382 9.42891 31.6842 9.44512 31.7274C9.46975 31.9138 9.50218 32.1091 9.53537 32.2996C9.65792 33.0198 9.81308 33.7406 9.99226 34.4432C10.0418 34.6556 10.0984 34.8672 10.1557 35.0705C10.4649 36.2118 10.8339 37.3339 11.2608 38.4317C11.3829 38.7442 11.5127 39.0493 11.6519 39.3535C11.9358 40.0306 12.2516 40.6903 12.5898 41.3408C12.7195 41.6115 12.8647 41.8732 13.0108 42.1356C13.4238 42.8878 13.8695 43.6225 14.3461 44.3349C14.5887 44.6899 14.8313 45.0441 15.0824 45.3932C15.3249 45.7228 15.5752 46.0514 15.8262 46.3694C15.839 46.3784 15.8498 46.3901 15.8582 46.4036C15.9229 46.4964 15.9962 46.5801 16.0687 46.6729C16.3275 46.9982 16.6018 47.3144 16.8768 47.6257C15.2811 45.1687 14.4248 42.2594 14.4194 39.2754L14.4194 39.2672C13.0025 32.9632 12.8102 23.7883 18.0199 12.821C18.0815 12.6559 18.154 12.4917 18.2336 12.3404Z" fill="black"/>
</g>
<g style="mix-blend-mode:multiply" opacity="0.1">
<path d="M50.922 10.0303L42.7695 10.0966L42.7689 10.1L42.7669 10.1027L42.7642 10.1045L42.761 10.1048L42.761 10.1138C42.6256 10.3344 42.498 10.5558 42.354 10.7699C42.0464 11.2888 41.7162 11.7907 41.3807 12.2838C40.5357 13.5202 39.6155 14.6976 38.626 15.8084C38.4419 16.0212 38.2501 16.2349 38.0582 16.4478C38.0266 16.4815 37.9865 16.516 37.9542 16.5497C37.6752 16.8571 37.3955 17.1466 37.1064 17.428C36.8028 17.7356 36.4898 18.0342 36.1815 18.3328C35.9178 18.5715 35.6464 18.8193 35.3743 19.0581C35.1985 19.2121 35.0142 19.3653 34.8306 19.5194C34.6865 19.6478 34.5345 19.7666 34.3903 19.8869C34.1667 20.0666 33.943 20.2461 33.7186 20.4168C33.6415 20.477 33.5643 20.5364 33.4949 20.5875C33.2072 20.8101 32.9111 21.0329 32.6071 21.2377C32.5718 21.268 32.5344 21.2956 32.4952 21.3201C32.1674 21.5512 31.8387 21.7742 31.5031 21.9883C31.2069 22.1938 30.9113 22.3821 30.6065 22.5535C30.4946 22.6311 30.375 22.6998 30.2546 22.7685C29.9668 22.9478 29.679 23.1199 29.3903 23.265C29.3586 23.2824 29.3347 23.2997 29.3023 23.3163C28.9666 23.514 28.6224 23.6946 28.2781 23.8663C28.2619 23.8664 28.2542 23.8746 28.238 23.8838C28.0064 24.0121 27.7749 24.1242 27.5433 24.2362C27.8524 24.2084 28.1686 24.1977 28.4809 24.1951L32.0291 24.1663C39.0459 21.2062 45.33 16.584 50.3943 10.658C50.5723 10.4558 50.7464 10.243 50.922 10.0303Z" fill="black"/>
</g>
<g style="mix-blend-mode:screen" opacity="0.6">
<path d="M37.6961 51.1583C34.9533 54.6367 31.5784 57.5012 27.7718 59.5819C23.9652 61.6626 19.8044 62.9168 15.5368 63.2702C15.6566 63.2774 16.0331 63.2914 16.6028 63.3039C17.0306 63.3127 17.4586 63.2978 17.8851 63.2593C18.4402 63.2373 18.9939 63.1821 19.5435 63.0941C19.8526 63.0574 20.1616 63.0075 20.4892 62.9592C20.8098 62.8889 21.1466 62.8185 21.4935 62.748C22.1826 62.607 22.8954 62.39 23.6321 62.1647C24.3525 61.8963 25.1218 61.6788 25.8582 61.3262C26.6109 61.007 27.3472 60.6292 28.0835 60.2481C28.8034 59.8198 29.5319 59.416 30.2037 58.9457C30.8919 58.5006 31.5234 57.9882 32.1389 57.5094C32.7472 57.0054 33.3146 56.5017 33.8256 55.9993C34.3154 55.5335 34.7822 55.0414 35.2242 54.525C35.6479 54.0559 36.0075 53.6053 36.3186 53.1877C36.5913 52.8417 36.8469 52.4812 37.0845 52.1075C37.4446 51.5746 37.6523 51.2345 37.6961 51.1583Z" fill="white"/>
</g>
<g style="mix-blend-mode:screen" opacity="0.6">
<path d="M42.7698 10.0942L42.7698 10.0852C42.722 10.137 42.5139 10.3675 42.1948 10.7508C41.8349 11.1777 41.3154 11.7915 40.6997 12.5252C40.3805 12.8841 40.0445 13.2659 39.6845 13.6773C39.3245 14.0887 38.9251 14.4882 38.542 14.9317C37.7263 15.7856 36.855 16.6824 35.9511 17.537C35.0473 18.4087 34.0999 19.2212 33.2236 19.9824C32.7606 20.3424 32.3433 20.7249 31.9119 21.0552C31.4806 21.3855 31.0879 21.7057 30.7198 21.9971C29.9752 22.5791 29.3509 23.0507 28.8948 23.3845C28.5591 23.6324 28.3346 23.8123 28.2389 23.8899C34.223 20.844 39.265 16.057 42.7698 10.0942Z" fill="white"/>
</g>
<g style="mix-blend-mode:screen" opacity="0.6">
<path d="M9.0428 26.6819C9.03011 23.7884 9.40655 20.9059 10.1609 18.1201L10.1608 18.0865C10.1608 18.0865 9.97732 18.5211 9.71332 19.3123C9.34864 20.402 9.06637 21.5199 8.86912 22.6558C8.57517 24.2716 8.43185 25.9131 8.44123 27.557C8.43769 28.4839 8.48067 29.4101 8.56997 30.3318C8.66989 31.2732 8.8017 32.2316 8.98936 33.1723C9.17704 34.1129 9.42215 35.045 9.6967 35.9498C9.82395 36.4008 9.97331 36.8444 10.1442 37.2788C10.3008 37.7106 10.4683 38.1341 10.6474 38.5485C10.9737 39.3405 11.3443 40.1114 11.7571 40.857C12.1123 41.5329 12.5032 42.1874 12.928 42.817C13.2771 43.3545 13.6523 43.8729 14.0518 44.3698C14.3918 44.8255 14.7307 45.1878 14.9871 45.4993C15.4881 46.0306 15.8036 46.3415 15.8596 46.3926C11.4653 40.8763 9.05299 33.901 9.0428 26.6819Z" fill="white"/>
</g>
<g style="mix-blend-mode:multiply" opacity="0.3">
<path d="M55.1664 10.0059L28.4427 10.2221C22.0642 10.275 15.894 12.6715 10.9992 16.9968C11.7509 16.4096 12.5104 15.8556 13.3024 15.3346C14.1065 14.8044 14.9366 14.3193 15.7893 13.8815C16.5014 13.505 17.2299 13.1789 17.9662 12.8779C18.1028 12.8174 18.2463 12.7659 18.3907 12.7053C19.2717 12.3513 20.1694 12.0456 21.0801 11.7895C21.9874 11.5293 22.9068 11.3195 23.8346 11.1608C24.7614 11.0184 25.693 10.902 26.6224 10.8514C27.5519 10.8008 28.4815 10.8021 29.4428 10.8033L32.302 10.8136L38.0156 10.8096L43.7291 10.7634C45.9493 10.7455 48.1689 10.7134 50.3875 10.6673C51.7984 10.6478 53.2086 10.6111 54.6102 10.5827L54.6042 11.1518L54.4879 12.2906L54.2788 13.4076L53.9862 14.5146L53.5969 15.5964L53.1194 16.6367L52.5614 17.6361L51.9229 18.585L51.2201 19.4759L50.4499 20.3169L49.6184 21.091L48.7234 21.7891L47.7632 22.4041L46.7603 22.9349L45.72 23.3814L44.6392 23.7356C47.6227 23.0645 50.2994 21.3321 52.2174 18.8308C54.1352 16.3294 55.1769 13.2124 55.1664 10.0059Z" fill="black"/>
</g>
<g style="mix-blend-mode:multiply" opacity="0.3">
<path d="M55.9878 39.0244L55.9668 32.011L46.5493 32.0877C48.1151 32.1845 49.6892 32.2314 51.2549 32.2947C52.692 32.3509 54.1198 32.39 55.5584 32.4233L55.446 37.7848C55.4327 38.7516 55.444 39.693 55.3771 40.6268C55.3173 41.5654 55.2129 42.5004 55.0642 43.4282C54.9298 44.3534 54.7448 45.2697 54.5104 46.1727C54.2844 47.0895 54.0111 47.9929 53.6917 48.8786C53.4132 49.7544 53.0225 50.6146 52.6713 51.4738C52.2487 52.3001 51.882 53.1594 51.3865 53.9438C50.9477 54.7652 50.4196 55.5212 49.9078 56.2975C49.6519 56.6807 49.3565 57.0381 49.0843 57.4067C48.8133 57.7825 48.5223 58.1415 48.2126 58.482C47.9086 58.8239 47.6124 59.183 47.3006 59.5159L46.3319 60.5053C46.0232 60.835 45.6594 61.1218 45.3228 61.4378C44.9792 61.7375 44.6503 62.0543 44.2818 62.3288L43.2005 63.1768L42.0709 63.9499C41.6946 64.2237 41.2981 64.4469 40.9117 64.6799C40.5253 64.9129 40.1343 65.1697 39.7253 65.3685C38.9152 65.784 38.102 66.2045 37.2474 66.5337C36.4302 66.9052 35.5716 67.1575 34.7294 67.4703C39.6696 66.2302 44.1954 63.5732 47.807 59.7928C51.4185 56.0122 53.9751 51.2554 55.1944 46.0477C55.7334 43.7492 56 41.3899 55.9878 39.0244Z" fill="black"/>
</g>
</g>
<defs>
<linearGradient id="paint0_linear_1_92" x1="86.4442" y1="24.8364" x2="56.8566" y2="35.0879" gradientUnits="userSpaceOnUse">
<stop stop-color="#C33764"/>
<stop offset="1" stop-color="#1D2671"/>
</linearGradient>
<linearGradient id="paint1_linear_1_92" x1="51.4369" y1="15.639" x2="68.395" y2="64.5831" gradientUnits="userSpaceOnUse">
<stop stop-color="#FC7300"/>
<stop offset="1" stop-color="#F8007A"/>
</linearGradient>
<linearGradient id="paint2_linear_1_92" x1="1127.69" y1="1105.07" x2="1097.76" y2="1105.17" gradientUnits="userSpaceOnUse">
<stop stop-color="#00F3FF"/>
<stop offset="0.238" stop-color="#00EFFC"/>
<stop offset="0.44" stop-color="#00E5F4"/>
<stop offset="0.629" stop-color="#00D3E7"/>
<stop offset="0.81" stop-color="#00BAD4"/>
<stop offset="0.983" stop-color="#009BBC"/>
<stop offset="1" stop-color="#0098BA"/>
</linearGradient>
<linearGradient id="paint3_linear_1_92" x1="1126.44" y1="1114.66" x2="1126.29" y2="1093.43" gradientUnits="userSpaceOnUse">
<stop stop-color="#233B55"/>
<stop offset="1" stop-color="#131D32"/>
</linearGradient>
<linearGradient id="paint4_linear_1_92" x1="1122.16" y1="1141.52" x2="1121.88" y2="1102.02" gradientUnits="userSpaceOnUse">
<stop stop-color="#49A09D"/>
<stop offset="0.149" stop-color="#4A989B"/>
<stop offset="0.375" stop-color="#4E8396"/>
<stop offset="0.65" stop-color="#54618E"/>
<stop offset="0.96" stop-color="#5D3283"/>
<stop offset="1" stop-color="#5F2C82"/>
</linearGradient>
<linearGradient id="paint5_linear_1_92" x1="1147.12" y1="1082.64" x2="1144.69" y2="1108.95" gradientUnits="userSpaceOnUse">
<stop stop-color="#233B55"/>
<stop offset="1" stop-color="#131D32"/>
</linearGradient>
<linearGradient id="paint6_linear_1_92" x1="1151.61" y1="1105.8" x2="1124.79" y2="1127.74" gradientUnits="userSpaceOnUse">
<stop stop-color="#3E6896"/>
<stop offset="0.247" stop-color="#355881"/>
<stop offset="0.75" stop-color="#1F324E"/>
<stop offset="1" stop-color="#131D32"/>
</linearGradient>
</defs>
</svg>
